<?xml version="1.0" encoding="UTF-8" standalone="no"?>
<svg
   xmlns:dc="http://purl.org/dc/elements/1.1/"
   xmlns:cc="http://creativecommons.org/ns#"
   xmlns:rdf="http://www.w3.org/1999/02/22-rdf-syntax-ns#"
   xmlns:svg="http://www.w3.org/2000/svg"
   xmlns="http://www.w3.org/2000/svg"
   xmlns:sodipodi="http://sodipodi.sourceforge.net/DTD/sodipodi-0.dtd"
   xmlns:inkscape="http://www.inkscape.org/namespaces/inkscape"
   sodipodi:docname="empty-icon.svg"
   inkscape:version="1.0 (4035a4fb49, 2020-05-01)"
   id="svg5131"
   version="1.1"
   viewBox="0 0 100 100"
   height="100mm"
   width="100mm">
  <defs
     id="defs5125" />
  <sodipodi:namedview
     inkscape:window-maximized="1"
     inkscape:window-y="-8"
     inkscape:window-x="1912"
     inkscape:window-height="1377"
     inkscape:window-width="2560"
     showgrid="false"
     inkscape:document-rotation="0"
     inkscape:current-layer="layer1"
     inkscape:document-units="mm"
     inkscape:cy="153.6813"
     inkscape:cx="99.793748"
     inkscape:zoom="0.7"
     inkscape:pageshadow="2"
     inkscape:pageopacity="0.0"
     borderopacity="1.0"
     bordercolor="#666666"
     pagecolor="#ffffff"
     id="base" />
  <metadata
     id="metadata5128">
    <rdf:RDF>
      <cc:Work
         rdf:about="">
        <dc:format>image/svg+xml</dc:format>
        <dc:type
           rdf:resource="http://purl.org/dc/dcmitype/StillImage" />
        <dc:title></dc:title>
      </cc:Work>
    </rdf:RDF>
  </metadata>
  <g
     id="layer1"
     inkscape:groupmode="layer"
     inkscape:label="Layer 1">
    <g
       transform="matrix(2.9721656,-0.44163659,0.44241533,2.9669341,-354.53136,-403.20424)"
       id="g1515">
      <rect
         style="fill:#4b4b4b;fill-opacity:1;stroke:none;stroke-width:2.20714;stroke-opacity:1"
         id="rect1511"
         width="8.1338997"
         height="10.661943"
         x="113.88381"
         y="153.91742"
         ry="0.73873645"
         transform="rotate(0.017038)"
         rx="0.73873645" />
      <path
         d="m 116.48352,157.51035 c -0.46347,0.003 -0.9073,0.21075 -1.19181,0.77278 l -0.47138,2.06933 a 0.86216054,0.86216185 0 0 0 -0.0488,0.28594 0.86216054,0.86216185 0 0 0 0.86213,0.86218 0.86216054,0.86216185 0 0 0 0.7312,-0.40541 l 0.37824,-0.56342 0.15732,-0.0908 h 0.8092 0.4142 0.8092 l 0.15732,0.0908 0.37824,0.56342 a 0.86216054,0.86216185 0 0 0 0.7312,0.40541 0.86216054,0.86216185 0 0 0 0.86213,-0.86218 0.86216054,0.86216185 0 0 0 -0.0488,-0.28594 l -0.47137,-2.06933 c -0.28452,-0.56203 -0.72835,-0.7702 -1.19182,-0.77278 -0.12977,-6.9e-4 -0.26109,0.0147 -0.39087,0.043 -0.27182,0.10118 -0.48976,0.24904 -0.6811,0.36379 h -0.15414 -0.4142 -0.15414 c -0.19134,-0.11475 -0.40929,-0.26261 -0.6811,-0.36379 -0.12978,-0.0283 -0.26111,-0.0436 -0.39087,-0.043 z m -0.24434,0.84478 h 0.30021 c 0.0367,0 0.0661,0.0295 0.0661,0.0661 v 0.36629 h 0.36629 c 0.0366,0 0.0661,0.0295 0.0661,0.0661 v 0.3002 c 0,0.0367 -0.0295,0.0661 -0.0661,0.0661 h -0.36629 v 0.36629 c 0,0.0367 -0.0295,0.0661 -0.0661,0.0661 h -0.30021 c -0.0367,0 -0.0661,-0.0295 -0.0661,-0.0661 v -0.36629 h -0.36629 c -0.0367,0 -0.0661,-0.0294 -0.0661,-0.0661 v -0.3002 c 0,-0.0367 0.0295,-0.0661 0.0661,-0.0661 h 0.36629 v -0.36629 c 0,-0.0367 0.0294,-0.0661 0.0661,-0.0661 z m 3.18717,0 a 0.21619805,0.21619848 0 0 1 0.2162,0.21621 0.21619805,0.21619848 0 0 1 -0.2162,0.2162 0.21619805,0.21619848 0 0 1 -0.21621,-0.2162 0.21619805,0.21619848 0 0 1 0.21621,-0.21621 z m -0.43241,0.43241 a 0.21619805,0.21619848 0 0 1 0.2162,0.21617 0.21619805,0.21619848 0 0 1 -0.2162,0.21621 0.21619805,0.21619848 0 0 1 -0.21621,-0.21621 0.21619805,0.21619848 0 0 1 0.21621,-0.21617 z m 0.86478,0 a 0.21619805,0.21619848 0 0 1 0.21621,0.21617 0.21619805,0.21619848 0 0 1 -0.21621,0.21621 0.21619805,0.21619848 0 0 1 -0.21617,-0.21621 0.21619805,0.21619848 0 0 1 0.21617,-0.21617 z m -0.43237,0.43238 a 0.21619805,0.21619848 0 0 1 0.2162,0.2162 0.21619805,0.21619848 0 0 1 -0.2162,0.21621 0.21619805,0.21619848 0 0 1 -0.21621,-0.21621 0.21619805,0.21619848 0 0 1 0.21621,-0.2162 z"
         style="fill:#a3a3a3;fill-opacity:1;stroke:none;stroke-width:1.02369"
         id="path847" />
    </g>
    <g
       transform="matrix(2.4702407,-0.33656567,0.33715913,2.4658927,-297.83851,-317.70259)"
       id="g1436">
      <rect
         style="fill:#4b4b4b;fill-opacity:1;stroke:none;stroke-width:3;stroke-opacity:1"
         id="rect1361"
         width="11.055801"
         height="14.491982"
         x="58.438061"
         y="186.18629"
         ry="1.0041093"
         transform="rotate(-12.444537)"
         rx="1.0041093" />
      <g
         id="layer1-9"
         inkscape:label="Layer 1"
         transform="matrix(0.0801737,-0.01769267,0.01769267,0.0801737,99.354634,172.75471)">
        <ellipse
           cy="17.681618"
           cx="51.757332"
           id="path1017"
           style="fill:#a3a3a3;fill-opacity:1;stroke:none;stroke-width:6.33951;stroke-miterlimit:4;stroke-dasharray:none;stroke-opacity:1"
           rx="24.032557"
           ry="25.748278" />
        <path
           sodipodi:nodetypes="ccscsccscccsc"
           d="m 51.572374,52.211459 v 0.02091 C 29.239952,52.694153 12.405855,65.624074 6.7143662,70.901615 2.2864921,75.0075 0.31682771,90.05283 6.0719895,90.130373 c 0,0 21.9713345,0.181645 45.5005725,0.290632 0.192148,9.7e-4 0.369224,0 0.369224,0 23.529125,-0.108989 45.500459,-0.290632 45.500459,-0.290632 5.755195,-0.07669 3.785305,-15.122752 -0.642376,-19.228758 C 91.108153,65.624074 74.274246,52.695808 51.941862,52.232369 v -0.02091 c -0.06782,9.29e-4 -0.128098,0.01974 -0.195915,0.02091 -0.06028,-10e-4 -0.113033,-0.02007 -0.17331,-0.02091 z"
           style="fill:#a3a3a3;fill-opacity:1;stroke:none;stroke-width:10.4915;stroke-miterlimit:4;stroke-dasharray:none;stroke-opacity:1"
           id="circle1019" />
      </g>
    </g>
    <rect
       style="fill:#4b4b4b;fill-opacity:1;stroke:none;stroke-width:8.4197;stroke-opacity:1"
       id="rect1381"
       width="31.052519"
       height="40.641712"
       x="79.641182"
       y="24.247238"
       ry="2.8159513"
       transform="matrix(0.96596287,0.25868074,-0.2595324,0.9657344,0,0)"
       rx="2.8202496" />
    <g
       transform="matrix(4.3910742,0,0,4.3833451,-458.35068,-721.72697)"
       id="g1531">
      <circle
         transform="rotate(-29.999999)"
         r="5.3318925"
         cy="207.25453"
         cx="10.512712"
         id="path835"
         style="fill:none;stroke:#a3a3a3;stroke-width:1.18628;stroke-miterlimit:4;stroke-dasharray:none;stroke-opacity:1" />
      <rect
         transform="rotate(-29.999999)"
         ry="0.014328445"
         y="212.28278"
         x="9.7355204"
         height="8.8563643"
         width="1.5543823"
         id="rect837"
         style="fill:#a3a3a3;fill-opacity:1;stroke-width:0.00034513" />
    </g>
    <path
       d="m 77.822655,52.526893 -0.669965,1.925213 a 7.9073945,7.8934496 0 0 0 -2.316033,0.957919 l -1.837583,-0.888589 -1.640111,1.637186 0.890196,1.834272 a 7.9073945,7.8934496 0 0 0 -0.959303,2.311993 l -1.928874,0.668557 v 2.315387 l 1.928569,0.668786 a 7.9073945,7.8934496 0 0 0 0.959301,2.312335 l -0.890156,1.834273 1.640073,1.637147 1.837888,-0.888588 a 7.9073945,7.8934496 0 0 0 2.316033,0.957652 l 0.669698,1.925479 h 2.319506 l 0.669965,-1.925213 a 7.9073945,7.8934496 0 0 0 2.316071,-0.957918 l 1.837549,0.888588 1.64041,-1.637147 -0.89019,-1.834273 a 7.9073945,7.8934496 0 0 0 0.9593,-2.312335 l 1.92888,-0.66852 v -2.315386 l -1.92888,-0.668824 a 7.9073945,7.8934496 0 0 0 -0.9593,-2.311993 l 0.89019,-1.834272 -1.64011,-1.637186 -1.837544,0.888589 a 7.9073945,7.8934496 0 0 0 -2.316376,-0.957919 l -0.66966,-1.925213 z m 1.130889,4.886134 a 4.7268716,4.718535 0 0 1 0.03055,0 4.7268716,4.718535 0 0 1 4.726562,4.718549 4.7268716,4.718535 0 0 1 -4.726562,4.718205 4.7268716,4.718535 0 0 1 -4.726906,-4.718205 4.7268716,4.718535 0 0 1 4.697887,-4.718549 z"
       style="fill:#a3a3a3;fill-opacity:1;stroke-width:0.362642"
       id="path1513" />
    <path
       id="path3782"
       style="fill:#a3a3a3;fill-opacity:1;stroke-width:0.25496"
       d="m 81.981998,70.630076 -0.104237,1.429122 a 5.5495473,5.5593483 89.973949 0 0 -1.398154,1.071231 l -1.409955,-0.269847 -0.815321,1.409722 0.938875,1.08396 a 5.5495473,5.5593483 89.973949 0 0 -0.230232,1.744325 l -1.188008,0.804395 0.422055,1.572392 1.431565,0.103673 a 5.5495473,5.5593483 89.973949 0 0 1.072968,1.396077 l -0.270322,1.407434 1.412206,0.813809 1.086102,-0.93726 a 5.5495473,5.5593483 89.973949 0 0 1.747399,0.229828 l 0.80581,1.185915 1.57517,-0.421274 0.10424,-1.429083 a 5.5495473,5.5593483 89.973949 0 0 1.39823,-1.071269 l 1.40988,0.269847 0.81558,-1.409721 -0.93887,-1.084001 a 5.5495473,5.5593483 89.973949 0 0 0.22985,-1.744591 l 1.18801,-0.804317 -0.42206,-1.572355 -1.43175,-0.104053 a 5.5495473,5.5593483 89.973949 0 0 -1.07297,-1.395848 l 0.27032,-1.407358 -1.41225,-0.813811 -1.08591,0.937186 a 5.5495473,5.5593483 89.973949 0 0 -1.74766,-0.229828 l -0.805741,-1.185725 z m 1.658628,3.112769 a 3.3174003,3.3232598 89.971948 0 1 0.0229,-0.0037 3.3174003,3.3232598 89.971948 0 1 4.069963,2.345877 3.3174003,3.3232598 89.971948 0 1 -2.34974,4.06272 3.3174003,3.3232598 89.971948 0 1 -4.070085,-2.345572 3.3174003,3.3232598 89.971948 0 1 2.330199,-4.057765 z" />
  </g>
</svg>
