<?xml version="1.0" encoding="UTF-8" standalone="no"?>
<svg
   xmlns:dc="http://purl.org/dc/elements/1.1/"
   xmlns:cc="http://creativecommons.org/ns#"
   xmlns:rdf="http://www.w3.org/1999/02/22-rdf-syntax-ns#"
   xmlns:svg="http://www.w3.org/2000/svg"
   xmlns="http://www.w3.org/2000/svg"
   xmlns:sodipodi="http://sodipodi.sourceforge.net/DTD/sodipodi-0.dtd"
   xmlns:inkscape="http://www.inkscape.org/namespaces/inkscape"
   sodipodi:docname="icon-game.svg"
   inkscape:version="1.0 (4035a4fb49, 2020-05-01)"
   id="svg8"
   version="1.1"
   viewBox="0 0 100 100"
   height="100mm"
   width="100mm">
  <defs
     id="defs2" />
  <sodipodi:namedview
     inkscape:window-maximized="0"
     inkscape:window-y="203"
     inkscape:window-x="2206"
     inkscape:window-height="1080"
     inkscape:window-width="1261"
     inkscape:snap-bbox-edge-midpoints="true"
     inkscape:snap-bbox="true"
     showgrid="false"
     inkscape:document-rotation="0"
     inkscape:current-layer="layer1"
     inkscape:document-units="mm"
     inkscape:cy="218.7681"
     inkscape:cx="190.34603"
     inkscape:zoom="1.4"
     inkscape:pageshadow="2"
     inkscape:pageopacity="0.0"
     borderopacity="1.0"
     bordercolor="#666666"
     pagecolor="#ffffff"
     id="base" />
  <metadata
     id="metadata5">
    <rdf:RDF>
      <cc:Work
         rdf:about="">
        <dc:format>image/svg+xml</dc:format>
        <dc:type
           rdf:resource="http://purl.org/dc/dcmitype/StillImage" />
        <dc:title></dc:title>
      </cc:Work>
    </rdf:RDF>
  </metadata>
  <g
     id="layer1"
     inkscape:groupmode="layer"
     inkscape:label="Layer 1">
    <path
       d="m 27.215824,18.283389 c -7.367817,0.04107 -14.423505,3.350353 -18.9464966,12.284978 l -7.49356,32.896745 A 13.705986,13.706007 0 0 0 0,68.010763 13.705986,13.706007 0 0 0 13.705624,81.717 13.705986,13.706007 0 0 0 25.329703,75.272196 l 6.013087,-8.956874 2.500812,-1.443759 h 12.864125 6.58455 12.864121 l 2.500816,1.443759 6.013087,8.956874 A 13.705986,13.706007 0 0 0 86.294379,81.717 13.705986,13.706007 0 0 0 100,68.010763 13.705986,13.706007 0 0 0 99.224235,63.465112 L 91.730675,30.568367 C 87.207684,21.633742 80.151989,18.324452 72.78418,18.283389 c -2.062988,-0.01151 -4.150662,0.233019 -6.213843,0.682203 -4.321045,1.608612 -7.785802,3.959217 -10.827582,5.783324 h -2.450478 -6.58455 -2.450478 c -3.04178,-1.824107 -6.506541,-4.174712 -10.827585,-5.783324 -2.063182,-0.449181 -4.150852,-0.693706 -6.21384,-0.682203 z m -3.884169,13.42968 h 4.772454 c 0.58223,0 1.050542,0.468907 1.050542,1.051139 v 5.823004 h 5.822995 c 0.582231,0 1.051137,0.468313 1.051137,1.050544 v 4.772461 c 0,0.582231 -0.468906,1.050544 -1.051137,1.050544 h -5.822995 v 5.823004 c 0,0.582231 -0.468312,1.051138 -1.050542,1.051138 h -4.772454 c -0.582228,0 -1.050542,-0.468907 -1.050542,-1.051138 v -5.823004 h -5.822995 c -0.582231,0 -1.051135,-0.468313 -1.051135,-1.050544 v -4.772461 c 0,-0.582231 0.468904,-1.050544 1.051135,-1.050544 h 5.822995 v -5.823004 c 0,-0.582232 0.468314,-1.051139 1.050542,-1.051139 z m 50.667101,0 a 3.4369555,3.4369624 0 0 1 3.437066,3.437072 3.4369555,3.4369624 0 0 1 -3.437066,3.437071 3.4369555,3.4369624 0 0 1 -3.437062,-3.437071 3.4369555,3.4369624 0 0 1 3.437062,-3.437072 z m -6.874128,6.874143 a 3.4369555,3.4369624 0 0 1 3.437066,3.436477 3.4369555,3.4369624 0 0 1 -3.437066,3.437072 3.4369555,3.4369624 0 0 1 -3.437066,-3.437072 3.4369555,3.4369624 0 0 1 3.437066,-3.436477 z m 13.747669,0 a 3.4369555,3.4369624 0 0 1 3.437063,3.436477 3.4369555,3.4369624 0 0 1 -3.437063,3.437072 3.4369555,3.4369624 0 0 1 -3.436475,-3.437072 3.4369555,3.4369624 0 0 1 3.436475,-3.436477 z m -6.873541,6.873549 a 3.4369555,3.4369624 0 0 1 3.437066,3.437071 3.4369555,3.4369624 0 0 1 -3.437066,3.437071 3.4369555,3.4369624 0 0 1 -3.437062,-3.437071 3.4369555,3.4369624 0 0 1 3.437062,-3.437071 z"
       style="fill:#ffffff;stroke:none;stroke-width:16.2739"
       id="path847" />
  </g>
</svg>
