<?xml version="1.0" encoding="UTF-8" standalone="no"?>
<svg
   xmlns:dc="http://purl.org/dc/elements/1.1/"
   xmlns:cc="http://creativecommons.org/ns#"
   xmlns:rdf="http://www.w3.org/1999/02/22-rdf-syntax-ns#"
   xmlns:svg="http://www.w3.org/2000/svg"
   xmlns="http://www.w3.org/2000/svg"
   xmlns:sodipodi="http://sodipodi.sourceforge.net/DTD/sodipodi-0.dtd"
   xmlns:inkscape="http://www.inkscape.org/namespaces/inkscape"
   inkscape:version="1.0 (4035a4fb49, 2020-05-01)"
   sodipodi:docname="icon-group.svg"
   id="svg8"
   version="1.1"
   viewBox="0 0 100 100"
   height="100mm"
   width="100mm">
  <defs
     id="defs2" />
  <sodipodi:namedview
     inkscape:window-maximized="0"
     inkscape:window-y="203"
     inkscape:window-x="2180"
     inkscape:window-height="1080"
     inkscape:window-width="1261"
     inkscape:snap-bbox-midpoints="true"
     inkscape:snap-bbox="true"
     showgrid="false"
     inkscape:document-rotation="0"
     inkscape:current-layer="layer1"
     inkscape:document-units="mm"
     inkscape:cy="208.83998"
     inkscape:cx="206.32485"
     inkscape:zoom="1.4"
     inkscape:pageshadow="2"
     inkscape:pageopacity="0.0"
     borderopacity="1.0"
     bordercolor="#666666"
     pagecolor="#ffffff"
     id="base" />
  <metadata
     id="metadata5">
    <rdf:RDF>
      <cc:Work
         rdf:about="">
        <dc:format>image/svg+xml</dc:format>
        <dc:type
           rdf:resource="http://purl.org/dc/dcmitype/StillImage" />
        <dc:title></dc:title>
      </cc:Work>
    </rdf:RDF>
  </metadata>
  <g
     id="layer1"
     inkscape:groupmode="layer"
     inkscape:label="Layer 1">
    <g
       transform="matrix(1.0197559,0,0,1.0197559,-0.97336025,-3.722187)"
       id="g922">
      <path
         id="path3505"
         style="fill:#b3b3b3;fill-opacity:1;stroke:none;stroke-width:2.82791;stroke-miterlimit:4;stroke-dasharray:none;stroke-opacity:1"
         d="m 24.939528,14.416985 c -9.016035,0.0936 -16.2761886,7.428962 -16.2760937,16.445485 8.851e-4,5.325413 2.5807687,10.320518 6.9222317,13.40463 -5.531342,4.953777 -9.3847241,14.063006 -9.8100472,24.700643 -0.00441,0.108533 -0.025783,1.81408 -0.049643,4.085234 H 44.457996 c -0.0012,-1.02159 -0.0015,-3.723707 -0.0029,-3.76748 C 44.094275,58.510859 40.217395,49.272495 34.633328,44.270022 38.975501,41.185404 41.554892,36.188756 41.554975,30.86247 41.554581,21.779963 34.191998,14.417372 25.10949,14.416985 c -0.05667,-2.93e-4 -0.113297,-2.93e-4 -0.169973,0 z" />
      <path
         id="path891"
         style="fill:#b3b3b3;fill-opacity:1;stroke:none;stroke-width:2.82791;stroke-miterlimit:4;stroke-dasharray:none;stroke-opacity:1"
         d="M 74.726657,14.416985 A 16.446331,16.446331 0 0 0 58.45115,30.86247 16.446331,16.446331 0 0 0 65.372797,44.2671 c -5.531341,4.953777 -9.384141,14.063006 -9.809464,24.700643 -0.0026,0.06486 -0.0045,2.915779 -0.007,4.085234 h 38.689381 c -0.0012,-1.02159 -0.0015,-3.723707 -0.0029,-3.76748 C 93.881978,58.510859 90.004515,49.272495 84.420452,44.270022 A 16.446331,16.446331 0 0 0 91.342683,30.86247 16.446331,16.446331 0 0 0 74.896614,14.416985 a 16.446331,16.446331 0 0 0 -0.169975,0 z" />
      <path
         id="path893"
         style="fill:#ffffff;fill-opacity:1;stroke:none;stroke-width:2.98101;stroke-miterlimit:4;stroke-dasharray:none;stroke-opacity:1"
         d="m 49.563911,24.52402 a 17.336706,17.336706 0 0 0 -17.156283,17.335634 17.336706,17.336706 0 0 0 7.296533,14.131069 c -5.830802,5.221967 -9.892775,14.823984 -10.341123,26.037522 -0.0058,0.141581 -0.01028,4.88805 -0.01507,8.917826 h 40.79559 c -0.0027,-3.848372 -0.0038,-8.483083 -0.0072,-8.582804 C 69.756012,71.005308 65.669388,61.266172 59.783011,55.992876 a 17.336706,17.336706 0 0 0 7.296532,-14.133222 17.336706,17.336706 0 0 0 -17.33635,-17.335634 17.336706,17.336706 0 0 0 -0.179346,0 z" />
    </g>
  </g>
</svg>
