<?xml version="1.0" encoding="UTF-8" standalone="no"?>
<svg
   xmlns:dc="http://purl.org/dc/elements/1.1/"
   xmlns:cc="http://creativecommons.org/ns#"
   xmlns:rdf="http://www.w3.org/1999/02/22-rdf-syntax-ns#"
   xmlns:svg="http://www.w3.org/2000/svg"
   xmlns="http://www.w3.org/2000/svg"
   xmlns:sodipodi="http://sodipodi.sourceforge.net/DTD/sodipodi-0.dtd"
   xmlns:inkscape="http://www.inkscape.org/namespaces/inkscape"
   sodipodi:docname="install-icon.svg"
   inkscape:version="1.0 (4035a4fb49, 2020-05-01)"
   id="svg2331"
   version="1.1"
   viewBox="0 0 93.579002 100"
   height="100mm"
   width="93.579002mm">
  <defs
     id="defs2325" />
  <sodipodi:namedview
     inkscape:window-maximized="0"
     inkscape:window-y="130"
     inkscape:window-x="2050"
     inkscape:window-height="1080"
     inkscape:window-width="1261"
     showgrid="false"
     inkscape:document-rotation="0"
     inkscape:current-layer="layer1"
     inkscape:document-units="mm"
     inkscape:cy="95.791477"
     inkscape:cx="160.28803"
     inkscape:zoom="0.7"
     inkscape:pageshadow="2"
     inkscape:pageopacity="0.0"
     borderopacity="1.0"
     bordercolor="#666666"
     pagecolor="#ffffff"
     id="base" />
  <metadata
     id="metadata2328">
    <rdf:RDF>
      <cc:Work
         rdf:about="">
        <dc:format>image/svg+xml</dc:format>
        <dc:type
           rdf:resource="http://purl.org/dc/dcmitype/StillImage" />
        <dc:title></dc:title>
      </cc:Work>
    </rdf:RDF>
  </metadata>
  <g
     id="layer1"
     inkscape:groupmode="layer"
     inkscape:label="Layer 1">
    <path
       d="m 40.81224,0 -3.63576,8.47469 a 38.634054,38.634054 0 0 0 -11.25067,4.63347 l -8.71236,-3.33059 -7.438815,7.43588 3.424486,8.56271 A 38.634054,38.634054 0 0 0 8.518689,37.00921 L 0,40.81519 v 10.51705 l 8.477598,3.63578 a 38.634054,38.634054 0 0 0 4.627621,11.24772 l -3.330584,8.7153 7.438815,7.43589 8.56271,-3.42158 a 38.634054,38.634054 0 0 0 11.23012,4.68045 l 3.80596,8.51869 h 10.51705 l 3.63578,-8.47468 a 38.634054,38.634054 0 0 0 1.69024,-0.44016 L 48.04565,72.22841 H 60.59333 V 65.05957 A 23.903603,23.903603 0 0 1 46.07077,69.97769 23.903603,23.903603 0 0 1 22.16678,46.07665 23.903603,23.903603 0 0 1 45.81547,22.17266 a 23.903603,23.903603 0 0 1 0.2553,0 23.903603,23.903603 0 0 1 23.90398,23.90399 23.903603,23.903603 0 0 1 -1.1503,7.32437 H 87.5198 l 4.62175,-2.06585 V 40.81812 L 83.66688,37.18235 A 38.634054,38.634054 0 0 0 79.03633,25.93169 L 82.36691,17.2164 74.93103,9.78051 66.36831,13.20207 A 38.634054,38.634054 0 0 0 55.13527,8.52163 L 51.32929,0.00293 Z M 63.71852,56.8842 V 75.50326 H 55.49034 L 65.01849,87.74869 74.54368,100 84.07183,87.74869 93.59703,75.50326 H 85.36885 V 56.8842 Z"
       style="fill:#ffffff;fill-opacity:1;stroke-width:1.50244"
       id="path2271" />
  </g>
</svg>
