<?xml version="1.0" encoding="UTF-8" standalone="no"?>
<svg
   xmlns:dc="http://purl.org/dc/elements/1.1/"
   xmlns:cc="http://creativecommons.org/ns#"
   xmlns:rdf="http://www.w3.org/1999/02/22-rdf-syntax-ns#"
   xmlns:svg="http://www.w3.org/2000/svg"
   xmlns="http://www.w3.org/2000/svg"
   xmlns:xlink="http://www.w3.org/1999/xlink"
   xmlns:sodipodi="http://sodipodi.sourceforge.net/DTD/sodipodi-0.dtd"
   xmlns:inkscape="http://www.inkscape.org/namespaces/inkscape"
   width="477.43301mm"
   height="100mm"
   viewBox="0 0 477.43301 100"
   version="1.1"
   id="svg2122"
   inkscape:version="1.0 (4035a4fb49, 2020-05-01)"
   sodipodi:docname="logo-full.svg">
  <defs
     id="defs2116">
    <linearGradient
       id="linearGradient863"
       inkscape:collect="always">
      <stop
         id="stop859"
         offset="0"
         style="stop-color:#569aff;stop-opacity:1;" />
      <stop
         id="stop861"
         offset="1"
         style="stop-color:#3964a9;stop-opacity:1" />
    </linearGradient>
    <clipPath
       clipPathUnits="userSpaceOnUse"
       id="clipath_lpe_path-effect1280">
      <path
         id="lpe_path-effect1280"
         style="fill:#ffffff;fill-opacity:1;stroke-width:0.242142"
         class="powerclip"
         d="m 131.39307,266.49475 h 26 v 26 h -26 z m 3.93731,13.38597 0.59377,1.22574 a 5.2752019,5.2752194 45 0 0 -0.64004,1.54511 l -1.28661,0.44693 v 1.5475 l 1.28661,0.44691 a 5.2752019,5.2752194 45 0 0 0.64004,1.54511 l -0.59377,1.22576 1.09401,1.09403 1.22591,-0.59362 a 5.2752019,5.2752194 45 0 0 1.54514,0.64005 l 0.44693,1.28696 1.5473,-1.8e-4 0.44709,-1.28678 a 5.2752019,5.2752194 45 0 0 1.54514,-0.64005 l 1.22571,0.59415 1.09423,-1.09421 -0.59379,-1.22608 a 5.2752019,5.2752194 45 0 0 0.63986,-1.54493 l -2.06414,-0.49101 a 3.1534026,3.1534134 45 0 1 -0.8377,1.49957 3.1534026,3.1534134 45 0 1 -4.45941,1.9e-4 3.1534026,3.1534134 45 0 1 -0.0135,-4.44569 l 1.8e-4,-1.6e-4 a 3.1534026,3.1534134 45 0 1 0.0135,-0.0135 3.1534026,3.1534134 45 0 1 2.95927,-0.8377 l 4.39961,1.84992 0.44695,1.28658 1.54728,1.9e-4 0.44711,-1.28677 a 5.2752019,5.2752194 45 0 0 1.54514,-0.64006 l 1.22571,0.59381 1.09422,-1.09421 -0.59381,-1.22574 a 5.2752019,5.2752194 45 0 0 0.64005,-1.54511 l 1.28663,-0.44696 V 276.749 l -1.28663,-0.44696 a 5.2752019,5.2752194 45 0 0 -0.64005,-1.54512 l 0.59381,-1.22573 -1.09402,-1.09403 -1.22591,0.59362 a 5.2752019,5.2752194 45 0 0 -1.54514,-0.64005 l -0.44693,-1.28696 -1.54728,1.8e-4 -0.44713,1.28678 a 5.2752019,5.2752194 45 0 0 -1.54512,0.64005 l -1.22573,-0.59417 -1.09421,1.09421 0.5938,1.2261 a 5.2752019,5.2752194 45 0 0 -0.63987,1.54493 l 2.06414,0.49102 a 3.1534026,3.1534134 45 0 1 0.83768,-1.49961 3.1534026,3.1534134 45 0 1 4.45942,-1.9e-4 3.1534026,3.1534134 45 0 1 0.0135,4.44569 l -2e-4,1.9e-4 a 3.1534026,3.1534134 45 0 1 -0.0135,0.0135 3.1534026,3.1534134 45 0 1 -2.9593,0.83767 l -4.39962,-1.84986 -0.44693,-1.28661 -1.54728,-1.9e-4 -0.4471,1.2868 a 5.2752019,5.2752194 45 0 0 -1.54515,0.64005 l -1.22572,-0.5938 z" />
    </clipPath>
    <linearGradient
       gradientUnits="userSpaceOnUse"
       y2="37.740265"
       x2="474.52301"
       y1="37.740265"
       x1="106.89513"
       id="linearGradient865"
       xlink:href="#linearGradient863"
       inkscape:collect="always" />
  </defs>
  <sodipodi:namedview
     id="base"
     pagecolor="#ffffff"
     bordercolor="#666666"
     borderopacity="1.0"
     inkscape:pageopacity="0.0"
     inkscape:pageshadow="2"
     inkscape:zoom="0.35000001"
     inkscape:cx="773.62767"
     inkscape:cy="386.59923"
     inkscape:document-units="mm"
     inkscape:current-layer="layer1"
     inkscape:document-rotation="0"
     showgrid="false"
     inkscape:window-width="1753"
     inkscape:window-height="1080"
     inkscape:window-x="1972"
     inkscape:window-y="52"
     inkscape:window-maximized="0" />
  <metadata
     id="metadata2119">
    <rdf:RDF>
      <cc:Work
         rdf:about="">
        <dc:format>image/svg+xml</dc:format>
        <dc:type
           rdf:resource="http://purl.org/dc/dcmitype/StillImage" />
        <dc:title />
      </cc:Work>
    </rdf:RDF>
  </metadata>
  <g
     inkscape:label="Layer 1"
     inkscape:groupmode="layer"
     id="layer1">
    <g
       style="font-size:60.8209px;line-height:1.25;font-family:arial;-inkscape-font-specification:arial;fill:url(#linearGradient865);fill-opacity:1;stroke-width:1.52051"
       id="text1477"
       aria-label="CONTINUUM">
      <path
         id="path878"
         style="font-style:normal;font-variant:normal;font-weight:normal;font-stretch:normal;font-family:'Yu Gothic';-inkscape-font-specification:'Yu Gothic';fill:url(#linearGradient865);fill-opacity:1;stroke-width:1.52051"
         d="m 140.72081,27.034242 -3.94979,1.217606 q -2.55401,-10.037824 -11.6415,-10.037824 -6.62259,0 -10.4536,5.731657 -3.53402,5.226796 -3.53402,13.779735 0,9.770545 4.54375,15.116132 3.7716,4.424958 9.44387,4.424958 9.56266,0 12.05726,-10.21601 l 3.8904,1.455187 q -3.8013,12.235455 -16.00706,12.235455 -8.46385,0 -13.54215,-6.830472 -4.63284,-6.206821 -4.63284,-16.096157 0,-11.403918 5.96923,-17.788925 4.92982,-5.286191 12.20576,-5.286191 6.29591,0 10.51299,3.712213 3.62312,3.177654 5.1377,8.582636 z" />
      <path
         id="path880"
         style="font-style:normal;font-variant:normal;font-weight:normal;font-stretch:normal;font-family:'Yu Gothic';-inkscape-font-specification:'Yu Gothic';fill:url(#linearGradient865);fill-opacity:1;stroke-width:1.52051"
         d="m 166.34993,14.739393 q 8.49354,0 13.48276,6.800774 4.51405,6.177123 4.51405,16.125854 0,11.403919 -5.79105,17.759227 -4.87043,5.31589 -12.20576,5.31589 -8.49354,0 -13.48276,-6.830472 -4.51405,-6.177123 -4.51405,-16.096157 0,-11.403918 5.85045,-17.788925 4.87042,-5.286191 12.14636,-5.286191 z m 0,3.474631 q -6.62259,0 -10.3645,5.701959 -3.38554,5.167401 -3.38554,13.809433 0,9.859638 4.36557,15.14583 3.65281,4.39526 9.38447,4.39526 6.65229,0 10.3942,-5.731657 3.35584,-5.167401 3.35584,-13.809433 0,-9.889336 -4.33587,-15.116132 -3.62312,-4.39526 -9.41417,-4.39526 z" />
      <path
         id="path882"
         style="font-style:normal;font-variant:normal;font-weight:normal;font-stretch:normal;font-family:'Yu Gothic';-inkscape-font-specification:'Yu Gothic';fill:url(#linearGradient865);fill-opacity:1;stroke-width:1.52051"
         d="m 227.25992,15.541231 v 44.338673 h -5.1674 L 206.08546,31.162223 q -2.46491,-4.573446 -6.32561,-12.146361 h -0.59395 q 0.11879,9.473568 0.11879,13.304572 v 27.55947 h -3.77161 V 15.541231 h 6.20682 l 15.26462,27.381284 q 2.73219,5.078307 6.32561,12.443338 h 0.59395 Q 223.48832,47.495961 223.48832,41.55642 V 15.541231 Z" />
      <path
         id="path884"
         style="font-style:normal;font-variant:normal;font-weight:normal;font-stretch:normal;font-family:'Yu Gothic';-inkscape-font-specification:'Yu Gothic';fill:url(#linearGradient865);fill-opacity:1;stroke-width:1.52051"
         d="m 269.51975,15.541231 v 3.474631 h -14.28459 v 40.864042 h -4.00919 V 19.015862 h -14.2252 v -3.474631 z" />
      <path
         id="path886"
         style="font-style:normal;font-variant:normal;font-weight:normal;font-stretch:normal;font-family:'Yu Gothic';-inkscape-font-specification:'Yu Gothic';fill:url(#linearGradient865);fill-opacity:1;stroke-width:1.52051"
         d="M 283.26979,15.541231 V 59.879904 H 279.2606 V 15.541231 Z" />
      <path
         id="path888"
         style="font-style:normal;font-variant:normal;font-weight:normal;font-stretch:normal;font-family:'Yu Gothic';-inkscape-font-specification:'Yu Gothic';fill:url(#linearGradient865);fill-opacity:1;stroke-width:1.52051"
         d="m 328.82608,15.541231 v 44.338673 h -5.1674 L 307.65162,31.162223 Q 305.18671,26.588777 301.326,19.015862 h -0.59395 q 0.11879,9.473568 0.11879,13.304572 v 27.55947 h -3.77161 V 15.541231 h 6.20682 l 15.26462,27.381284 q 2.73219,5.078307 6.32561,12.443338 h 0.59396 Q 325.05447,47.495961 325.05447,41.55642 V 15.541231 Z" />
      <path
         id="path890"
         style="font-style:normal;font-variant:normal;font-weight:normal;font-stretch:normal;font-family:'Yu Gothic';-inkscape-font-specification:'Yu Gothic';fill:url(#linearGradient865);fill-opacity:1;stroke-width:1.52051"
         d="m 373.8478,15.541231 v 29.727402 q 0,8.166869 -5.1674,12.235455 -4.09828,3.23705 -10.54268,3.23705 -7.51352,0 -11.6712,-4.187377 -4.00919,-4.038888 -4.00919,-11.285128 V 15.541231 h 4.00919 v 29.549216 q 0,6.563193 3.65282,9.651754 2.99947,2.524305 8.13717,2.524305 5.90984,0 8.93901,-3.326143 2.82128,-3.088561 2.82128,-8.849916 V 15.541231 Z" />
      <path
         id="path892"
         style="font-style:normal;font-variant:normal;font-weight:normal;font-stretch:normal;font-family:'Yu Gothic';-inkscape-font-specification:'Yu Gothic';fill:url(#linearGradient865);fill-opacity:1;stroke-width:1.52051"
         d="m 418.75073,15.541231 v 29.727402 q 0,8.166869 -5.1674,12.235455 -4.09829,3.23705 -10.54269,3.23705 -7.51352,0 -11.6712,-4.187377 -4.00919,-4.038888 -4.00919,-11.285128 V 15.541231 h 4.00919 v 29.549216 q 0,6.563193 3.65282,9.651754 2.99947,2.524305 8.13717,2.524305 5.90985,0 8.93901,-3.326143 2.82128,-3.088561 2.82128,-8.849916 V 15.541231 Z" />
      <path
         id="path894"
         style="font-style:normal;font-variant:normal;font-weight:normal;font-stretch:normal;font-family:'Yu Gothic';-inkscape-font-specification:'Yu Gothic';fill:url(#linearGradient865);fill-opacity:1;stroke-width:1.52051"
         d="m 474.52301,15.541231 v 44.338673 h -3.831 V 31.964061 l 0.0594,-13.126385 h -0.68305 q -0.89093,3.029166 -4.18737,12.888804 l -9.97843,28.153424 h -5.1674 L 440.90521,31.72648 q -2.16793,-6.177123 -4.27647,-12.888804 h -0.65335 q -0.0297,1.277001 -0.0297,2.672793 l 0.0891,10.512988 v 27.856447 h -3.65281 V 15.541231 h 6.74138 l 9.62205,27.797052 q 2.37582,6.771076 4.36557,13.007594 h 0.62365 q 3.41523,-10.186313 4.36556,-12.829408 l 9.74085,-27.975238 z" />
    </g>
    <g
       style="font-size:26.9584px;line-height:1.25;font-family:arial;-inkscape-font-specification:arial;fill:#728e94;fill-opacity:1;stroke-width:0.673963"
       id="text1481"
       aria-label="MOD MANAGER">
      <path
         id="path844"
         style="font-style:normal;font-variant:normal;font-weight:normal;font-stretch:normal;font-family:roboto;-inkscape-font-specification:roboto;fill:#728e94;fill-opacity:1;stroke-width:0.673963"
         d="m 110.26628,67.64812 6.26572,15.637979 6.26572,-15.637979 h 3.27766 v 19.165738 h -2.52735 v -7.463581 l 0.23694,-8.055928 -6.29205,15.519509 h -1.935 l -6.27889,-15.480019 0.25011,8.016438 v 7.463581 h -2.52735 V 67.64812 Z" />
      <path
         id="path846"
         style="font-style:normal;font-variant:normal;font-weight:normal;font-stretch:normal;font-family:roboto;-inkscape-font-specification:roboto;fill:#728e94;fill-opacity:1;stroke-width:0.673963"
         d="m 145.28061,77.849663 q 0,2.816943 -0.94776,4.923068 -0.94775,2.092961 -2.68531,3.198677 -1.73755,1.105716 -4.05429,1.105716 -2.26408,0 -4.0148,-1.105716 -1.75071,-1.118879 -2.7248,-3.172351 -0.96092,-2.066635 -0.98724,-4.778271 v -1.382145 q 0,-2.764289 0.96092,-4.883577 0.96092,-2.119288 2.71163,-3.238167 1.76388,-1.132043 4.02797,-1.132043 2.30357,0 4.05429,1.118879 1.76388,1.105716 2.71163,3.225004 0.94776,2.106125 0.94776,4.909904 z m -2.51419,-1.237348 q 0,-3.40929 -1.36898,-5.225823 -1.36898,-1.829696 -3.83051,-1.829696 -2.39572,0 -3.77787,1.829696 -1.36898,1.816533 -1.40847,5.0547 v 1.408471 q 0,3.303984 1.38215,5.199496 1.39531,1.88235 3.83051,1.88235 2.44837,0 3.79103,-1.777043 1.34265,-1.790207 1.38214,-5.120517 z" />
      <path
         id="path848"
         style="font-style:normal;font-variant:normal;font-weight:normal;font-stretch:normal;font-family:roboto;-inkscape-font-specification:roboto;fill:#728e94;fill-opacity:1;stroke-width:0.673963"
         d="M 149.07163,86.813858 V 67.64812 h 5.41011 q 2.50103,0 4.42286,1.105716 1.92184,1.105715 2.96174,3.146024 1.05307,2.040309 1.06623,4.686128 v 1.224185 q 0,2.711636 -1.05306,4.751945 -1.0399,2.040309 -2.98807,3.132861 -1.935,1.092552 -4.515,1.118879 z m 2.52735,-17.085939 v 15.019304 h 2.65899 q 2.92224,0 4.54133,-1.816533 1.63224,-1.816533 1.63224,-5.17317 v -1.118879 q 0,-3.264493 -1.5401,-5.067863 -1.52694,-1.816533 -4.34388,-1.842859 z" />
      <path
         id="path850"
         style="font-style:normal;font-variant:normal;font-weight:normal;font-stretch:normal;font-family:roboto;-inkscape-font-specification:roboto;fill:#728e94;fill-opacity:1;stroke-width:0.673963"
         d="m 176.71452,67.64812 6.26572,15.637979 6.26573,-15.637979 h 3.27765 v 19.165738 h -2.52735 v -7.463581 l 0.23694,-8.055928 -6.29205,15.519509 h -1.935 l -6.27888,-15.480019 0.2501,8.016438 v 7.463581 h -2.52735 V 67.64812 Z" />
      <path
         id="path852"
         style="font-style:normal;font-variant:normal;font-weight:normal;font-stretch:normal;font-family:roboto;-inkscape-font-specification:roboto;fill:#728e94;fill-opacity:1;stroke-width:0.673963"
         d="m 207.83252,81.811811 h -8.0296 l -1.80337,5.002047 h -2.60633 l 7.31879,-19.165738 h 2.21143 l 7.33195,19.165738 h -2.59317 z m -7.26613,-2.079798 h 6.51583 l -3.2645,-8.964195 z" />
      <path
         id="path854"
         style="font-style:normal;font-variant:normal;font-weight:normal;font-stretch:normal;font-family:roboto;-inkscape-font-specification:roboto;fill:#728e94;fill-opacity:1;stroke-width:0.673963"
         d="m 229.5651,86.813858 h -2.54051 L 217.3759,72.044656 v 14.769202 h -2.54051 V 67.64812 h 2.54051 l 9.67501,14.835018 V 67.64812 h 2.51419 z" />
      <path
         id="path856"
         style="font-style:normal;font-variant:normal;font-weight:normal;font-stretch:normal;font-family:roboto;-inkscape-font-specification:roboto;fill:#728e94;fill-opacity:1;stroke-width:0.673963"
         d="m 244.90033,81.811811 h -8.02961 l -1.80337,5.002047 h -2.60633 l 7.31879,-19.165738 h 2.21143 l 7.33195,19.165738 h -2.59317 z m -7.26614,-2.079798 h 6.51583 l -3.26449,-8.964195 z" />
      <path
         id="path858"
         style="font-style:normal;font-variant:normal;font-weight:normal;font-stretch:normal;font-family:roboto;-inkscape-font-specification:roboto;fill:#728e94;fill-opacity:1;stroke-width:0.673963"
         d="m 265.89575,84.299671 q -0.97408,1.395308 -2.7248,2.092962 -1.73755,0.684491 -4.05429,0.684491 -2.34306,0 -4.15959,-1.092553 -1.81654,-1.105715 -2.81695,-3.132861 -0.98724,-2.027145 -1.01357,-4.699291 v -1.671737 q 0,-4.33072 2.01398,-6.713274 2.02715,-2.382554 5.68654,-2.382554 3.00123,0 4.83092,1.540104 1.8297,1.526941 2.23776,4.343883 h -2.52735 q -0.71082,-3.804188 -4.52817,-3.804188 -2.54051,0 -3.85684,1.790206 -1.30316,1.777043 -1.31633,5.160007 v 1.56643 q 0,3.225004 1.47429,5.13368 1.47429,1.895512 3.98848,1.895512 1.42163,0 2.48786,-0.315918 1.06622,-0.315919 1.76388,-1.066226 v -4.304393 h -4.43603 v -2.053472 h 6.95021 z" />
      <path
         id="path860"
         style="font-style:normal;font-variant:normal;font-weight:normal;font-stretch:normal;font-family:roboto;-inkscape-font-specification:roboto;fill:#728e94;fill-opacity:1;stroke-width:0.673963"
         d="m 280.95455,77.95497 h -8.30603 v 6.792253 h 9.64869 v 2.066635 H 270.12117 V 67.64812 h 12.0444 v 2.079799 h -9.51705 v 6.160415 h 8.30603 z" />
      <path
         id="path862"
         style="font-style:normal;font-variant:normal;font-weight:normal;font-stretch:normal;font-family:roboto;-inkscape-font-specification:roboto;fill:#728e94;fill-opacity:1;stroke-width:0.673963"
         d="m 292.47241,79.060685 h -4.50184 v 7.753173 h -2.54051 V 67.64812 h 6.3447 q 3.23817,0 4.97572,1.474288 1.75072,1.474287 1.75072,4.291229 0,1.790207 -0.97408,3.119698 -0.96092,1.329492 -2.68531,1.987656 l 4.50184,8.134908 v 0.157959 h -2.71164 z m -4.50184,-2.066635 h 3.88317 q 1.88235,0 2.98807,-0.974083 1.11887,-0.974083 1.11887,-2.60633 0,-1.777043 -1.06622,-2.724799 -1.05306,-0.947756 -3.05388,-0.960919 h -3.87001 z" />
    </g>
    <path
       id="path1483"
       d="M 8.758347e-5,86.859047 V 13.317356 L 59.968022,9.373299e-6 86.697994,13.317356 V 86.859047 L 21.71473,100.00001 Z"
       style="fill:#ffffff;fill-opacity:1;stroke:none;stroke-width:4.77087px;stroke-linecap:butt;stroke-linejoin:miter;stroke-opacity:1"
       sodipodi:nodetypes="ccccccc" />
    <path
       id="path1485"
       transform="matrix(5.4186209,0,0,5.4186209,-739.06229,-1465.2431)"
       clip-path="url(#clipath_lpe_path-effect1280)"
       d="m 136.39307,272.86656 11.06702,-2.4577 4.93298,2.4577 v 13.57203 l -11.99259,2.42514 -4.00741,-2.42514 z"
       style="fill:#569aff;fill-opacity:1;stroke:none;stroke-width:0.704846"
       sodipodi:nodetypes="ccccccc" />
    <g
       style="font-size:18.802px;line-height:1.25;font-family:arial;-inkscape-font-specification:arial;fill:#728e94;fill-opacity:1;stroke-width:0.470052"
       id="text844"
       aria-label="(BETA)">
      <path
         id="path865"
         style="font-style:normal;font-variant:normal;font-weight:normal;font-stretch:normal;font-family:roboto;-inkscape-font-specification:roboto;fill:#728e94;fill-opacity:1;stroke-width:0.470052"
         d="m 310.51854,79.052278 q 0,-2.07483 0.55084,-3.984408 0.56002,-1.909579 1.6617,-3.470291 1.10168,-1.560713 2.28599,-2.20336 l 0.34886,1.120041 q -1.34037,1.028235 -2.20335,3.139787 -0.85381,2.111553 -0.93643,4.728042 l -0.009,0.780357 q 0,3.543736 1.29447,6.151045 0.78036,1.560713 1.85449,2.442056 l -0.34886,1.037415 q -1.22103,-0.679369 -2.33189,-2.276804 -2.16664,-3.121426 -2.16664,-7.46388 z" />
      <path
         id="path867"
         style="font-style:normal;font-variant:normal;font-weight:normal;font-stretch:normal;font-family:roboto;-inkscape-font-specification:roboto;fill:#728e94;fill-opacity:1;stroke-width:0.470052"
         d="M 317.27551,84.47805 V 71.111003 h 4.37 q 2.17582,0 3.26832,0.899705 1.10168,0.899705 1.10168,2.662393 0,0.936428 -0.53248,1.6617 -0.53248,0.716092 -1.45055,1.110861 1.08332,0.302961 1.70761,1.156763 0.63346,0.844621 0.63346,2.019746 0,1.79941 -1.16594,2.827645 -1.16595,1.028234 -3.29586,1.028234 z m 1.76269,-6.252032 v 4.810668 h 2.91027 q 1.23021,0 1.93712,-0.633466 0.71609,-0.642646 0.71609,-1.762687 0,-2.414515 -2.62567,-2.414515 z m 0,-1.413822 h 2.66239 q 1.15677,0 1.84532,-0.578382 0.69773,-0.578382 0.69773,-1.569894 0,-1.101679 -0.64265,-1.597435 -0.64265,-0.504937 -1.95548,-0.504937 h -2.60731 z" />
      <path
         id="path869"
         style="font-style:normal;font-variant:normal;font-weight:normal;font-stretch:normal;font-family:roboto;-inkscape-font-specification:roboto;fill:#728e94;fill-opacity:1;stroke-width:0.470052"
         d="m 336.54573,78.299463 h -5.793 v 4.737223 h 6.72942 v 1.441364 h -8.49211 V 71.111003 h 8.40031 v 1.450545 h -6.63762 v 4.296551 h 5.793 z" />
      <path
         id="path871"
         style="font-style:normal;font-variant:normal;font-weight:normal;font-stretch:normal;font-family:roboto;-inkscape-font-specification:roboto;fill:#728e94;fill-opacity:1;stroke-width:0.470052"
         d="m 349.09569,72.561548 h -4.29655 V 84.47805 h -1.7535 V 72.561548 h -4.28737 v -1.450545 h 10.33742 z" />
      <path
         id="path873"
         style="font-style:normal;font-variant:normal;font-weight:normal;font-stretch:normal;font-family:roboto;-inkscape-font-specification:roboto;fill:#728e94;fill-opacity:1;stroke-width:0.470052"
         d="m 357.74388,80.989398 h -5.6002 l -1.25775,3.488652 h -1.81778 l 5.10445,-13.367047 h 1.54236 l 5.11363,13.367047 h -1.8086 z m -5.06772,-1.450545 h 4.54442 l -2.2768,-6.252032 z" />
      <path
         id="path875"
         style="font-style:normal;font-variant:normal;font-weight:normal;font-stretch:normal;font-family:roboto;-inkscape-font-specification:roboto;fill:#728e94;fill-opacity:1;stroke-width:0.470052"
         d="m 366.2819,79.144084 q 0,2.047288 -0.54166,3.929325 -0.53248,1.872855 -1.64334,3.46111 -1.10168,1.588255 -2.31353,2.258443 l -0.35804,-1.037415 q 1.41382,-1.083318 2.26762,-3.360123 0.86298,-2.285985 0.88134,-5.067726 v -0.293782 q 0,-1.927939 -0.40394,-3.580459 -0.40395,-1.6617 -1.12923,-2.974535 -0.71609,-1.312835 -1.61579,-2.047288 l 0.35804,-1.037415 q 1.21185,0.670189 2.30435,2.240082 1.10168,1.569894 1.64334,3.461111 0.55084,1.891216 0.55084,4.048672 z" />
    </g>
  </g>
</svg>
