<?xml version="1.0" encoding="UTF-8" standalone="no"?>
<svg
   xmlns:dc="http://purl.org/dc/elements/1.1/"
   xmlns:cc="http://creativecommons.org/ns#"
   xmlns:rdf="http://www.w3.org/1999/02/22-rdf-syntax-ns#"
   xmlns:svg="http://www.w3.org/2000/svg"
   xmlns="http://www.w3.org/2000/svg"
   xmlns:sodipodi="http://sodipodi.sourceforge.net/DTD/sodipodi-0.dtd"
   xmlns:inkscape="http://www.inkscape.org/namespaces/inkscape"
   sodipodi:docname="mod-noreplace.svg"
   inkscape:version="1.0 (4035a4fb49, 2020-05-01)"
   id="svg3551"
   version="1.1"
   viewBox="0 0 100 100"
   height="100mm"
   width="100mm">
  <defs
     id="defs3545" />
  <sodipodi:namedview
     inkscape:window-maximized="0"
     inkscape:window-y="52"
     inkscape:window-x="1972"
     inkscape:window-height="1080"
     inkscape:window-width="1261"
     inkscape:snap-bbox-midpoints="true"
     inkscape:snap-bbox="true"
     showgrid="false"
     inkscape:document-rotation="0"
     inkscape:current-layer="layer1"
     inkscape:document-units="mm"
     inkscape:cy="213.6375"
     inkscape:cx="157.82529"
     inkscape:zoom="1.4"
     inkscape:pageshadow="2"
     inkscape:pageopacity="0.0"
     borderopacity="1.0"
     bordercolor="#666666"
     pagecolor="#ffffff"
     id="base" />
  <metadata
     id="metadata3548">
    <rdf:RDF>
      <cc:Work
         rdf:about="">
        <dc:format>image/svg+xml</dc:format>
        <dc:type
           rdf:resource="http://purl.org/dc/dcmitype/StillImage" />
        <dc:title></dc:title>
      </cc:Work>
    </rdf:RDF>
  </metadata>
  <g
     id="layer1"
     inkscape:groupmode="layer"
     inkscape:label="Layer 1">
    <path
       d="M 49.784703,2.8121962e-4 A 20.977051,20.977051 0 0 0 29.025417,20.976422 20.977051,20.977051 0 0 0 37.85401,38.074155 C 30.798866,44.392624 25.884358,56.0111 25.341865,69.579249 c -0.01946,0.4829 -0.03548,29.93341 -0.044,30.42075 h 49.40427 c -0.006,-0.35092 -0.01358,-29.66657 -0.02515,-30.01531 C 74.216807,56.241795 69.27153,44.457893 62.149139,38.077309 A 20.977051,20.977051 0 0 0 70.977732,20.976422 20.977051,20.977051 0 0 0 50.001575,2.8121962e-4 a 20.977051,20.977051 0 0 0 -0.216872,0 z"
       style="fill:#ffffff;fill-opacity:1;stroke:none;stroke-width:3.60695;stroke-miterlimit:4;stroke-dasharray:none;stroke-opacity:1"
       id="path3505" />
  </g>
</svg>
