<?xml version="1.0" encoding="UTF-8" standalone="no"?>
<svg
   xmlns:dc="http://purl.org/dc/elements/1.1/"
   xmlns:cc="http://creativecommons.org/ns#"
   xmlns:rdf="http://www.w3.org/1999/02/22-rdf-syntax-ns#"
   xmlns:svg="http://www.w3.org/2000/svg"
   xmlns="http://www.w3.org/2000/svg"
   xmlns:sodipodi="http://sodipodi.sourceforge.net/DTD/sodipodi-0.dtd"
   xmlns:inkscape="http://www.inkscape.org/namespaces/inkscape"
   inkscape:version="1.0 (4035a4fb49, 2020-05-01)"
   sodipodi:docname="mod-replace.svg"
   id="svg3551"
   version="1.1"
   viewBox="0 0 100 100"
   height="100mm"
   width="100mm">
  <defs
     id="defs3545" />
  <sodipodi:namedview
     inkscape:window-maximized="0"
     inkscape:window-y="52"
     inkscape:window-x="1972"
     inkscape:window-height="1080"
     inkscape:window-width="1261"
     inkscape:snap-bbox-midpoints="true"
     inkscape:snap-bbox="true"
     showgrid="false"
     inkscape:document-rotation="0"
     inkscape:current-layer="layer1"
     inkscape:document-units="mm"
     inkscape:cy="-27.97393"
     inkscape:cx="267.336"
     inkscape:zoom="0.7"
     inkscape:pageshadow="2"
     inkscape:pageopacity="0.0"
     borderopacity="1.0"
     bordercolor="#666666"
     pagecolor="#ffffff"
     id="base" />
  <metadata
     id="metadata3548">
    <rdf:RDF>
      <cc:Work
         rdf:about="">
        <dc:format>image/svg+xml</dc:format>
        <dc:type
           rdf:resource="http://purl.org/dc/dcmitype/StillImage" />
        <dc:title></dc:title>
      </cc:Work>
    </rdf:RDF>
  </metadata>
  <g
     id="layer1"
     inkscape:groupmode="layer"
     inkscape:label="Layer 1">
    <path
       id="path3518"
       style="fill:none;fill-opacity:1;stroke:#ffffff;stroke-width:2.88451;stroke-miterlimit:4;stroke-dasharray:8.65352, 8.65352;stroke-dashoffset:0;stroke-opacity:1"
       d="M 71.409454,1.5893282 A 20.333279,20.333279 0 0 0 51.287253,21.92175 20.333279,20.333279 0 0 0 59.844898,38.497788 c -6.83691,6.125217 -11.602397,17.385467 -12.128157,30.535157 -0.0189,0.468354 -0.0311,29.014791 -0.03964,29.487166 h 47.8881 C 95.559489,98.17983 95.551789,69.764013 95.540809,69.425987 95.094711,56.104502 90.301526,44.682464 83.397418,38.497788 A 20.333279,20.333279 0 0 0 91.955068,21.92175 20.333279,20.333279 0 0 0 71.619609,1.5893282 a 20.333279,20.333279 0 0 0 -0.21021,0 z" />
    <path
       sodipodi:nodetypes="csccssc"
       d="M 28.493149,32.894508 C 15.444692,32.973578 4.7418234,49.056132 3.9250302,69.484941 c -0.01946,0.48291 -0.03284,29.93321 -0.04136,30.42056 H 53.287824 c -0.006,-0.35093 -0.01466,-29.66663 -0.02615,-30.01537 C 52.56926,49.212196 41.755619,32.894812 28.584384,32.894508 c -0.03041,0 -0.06083,-6.1e-5 -0.09117,0 z"
       style="fill:#ffffff;fill-opacity:1;stroke:none;stroke-width:3.60695;stroke-miterlimit:4;stroke-dasharray:none;stroke-opacity:1"
       id="path3514" />
    <circle
       r="20.976999"
       cy="20.8825"
       cx="28.585646"
       id="circle3516"
       style="fill:#ffffff;fill-opacity:1;stroke:none;stroke-width:4.04453;stroke-miterlimit:4;stroke-dasharray:none;stroke-opacity:1" />
  </g>
</svg>
